<?xml version="1.0" standalone="no"?>
<!DOCTYPE svg PUBLIC "-//W3C//DTD SVG 20010904//EN"
 "http://www.w3.org/TR/2001/REC-SVG-20010904/DTD/svg10.dtd">
<svg version="1.0" xmlns="http://www.w3.org/2000/svg"
 width="1600.000000pt" height="1200.000000pt" viewBox="0 0 1600.000000 1200.000000"
 preserveAspectRatio="xMidYMid meet">

<g transform="translate(0.000000,1200.000000) scale(0.100000,-0.100000)"
fill="#000000" stroke="none">
<path d="M7800 10274 c-302 -27 -661 -123 -915 -245 -296 -142 -514 -296 -746
-528 -212 -213 -360 -412 -496 -667 -229 -430 -334 -998 -274 -1475 27 -213
60 -368 117 -536 308 -923 1084 -1577 2058 -1734 259 -42 612 -35 872 17 419
84 767 240 1112 499 117 87 386 349 474 460 284 360 483 821 553 1285 34 221
30 540 -10 746 -36 191 -48 242 -76 333 -188 616 -568 1115 -1104 1451 -208
131 -501 258 -724 315 -209 53 -383 76 -596 80 -110 1 -220 1 -245 -1z m460
-134 c459 -48 931 -244 1285 -533 88 -71 262 -244 343 -339 163 -193 347 -514
427 -748 94 -272 137 -524 138 -810 1 -226 -16 -378 -69 -591 -156 -636 -520
-1154 -1067 -1518 -285 -191 -590 -311 -979 -387 -110 -21 -570 -31 -695 -14
-389 52 -750 181 -1051 376 -310 202 -623 530 -793 830 -189 336 -287 662
-319 1064 -36 447 86 992 307 1375 307 530 737 908 1278 1123 207 82 469 150
665 171 108 12 419 12 530 1z"/>
<path d="M7775 9863 c-166 -25 -284 -62 -420 -131 -67 -35 -75 -36 -205 -42
-127 -5 -135 -6 -138 -26 -2 -11 6 -28 17 -38 17 -16 35 -18 138 -14 l118 3
101 58 c130 74 233 111 369 132 239 38 490 -9 731 -135 78 -41 85 -42 190 -47
124 -5 157 5 162 50 l3 27 -139 0 c-131 0 -142 1 -188 26 -79 43 -177 81 -282
110 -85 24 -118 28 -262 30 -91 1 -178 0 -195 -3z"/>
<path d="M7705 9740 c-101 -23 -199 -60 -273 -102 -96 -56 -113 -61 -227 -67
l-110 -6 -3 -49 c-6 -95 -9 -93 125 -88 l118 4 115 64 c199 109 275 129 495
129 148 0 167 -2 250 -28 50 -16 140 -55 200 -87 119 -63 123 -64 268 -62 l98
2 -3 68 -3 67 -117 7 c-113 7 -121 9 -207 53 -171 86 -300 115 -506 114 -97 0
-165 -6 -220 -19z"/>
<path d="M7790 9574 c-114 -21 -206 -59 -335 -139 l-77 -48 -124 1 -124 2 0
-101 0 -102 143 5 142 4 61 42 c142 96 266 139 429 148 164 10 277 -24 453
-134 l77 -47 127 -3 c149 -4 141 -11 136 123 l-3 80 -110 -3 -110 -3 -60 36
c-183 108 -271 135 -460 140 -77 2 -151 2 -165 -1z"/>
<path d="M7800 9314 c-93 -20 -173 -51 -240 -95 -115 -74 -71 -69 -577 -69
-252 0 -522 -3 -600 -7 -126 -5 -143 -8 -143 -23 0 -41 17 -43 313 -36 155 3
424 7 597 7 193 1 323 6 335 12 11 5 37 25 58 43 50 42 166 98 242 117 201 50
334 23 525 -107 45 -31 86 -54 90 -51 4 3 271 5 593 5 515 0 588 2 602 16 19
20 19 40 -1 48 -16 6 -473 1 -949 -10 l-250 -5 -63 40 c-102 67 -175 101 -248
116 -85 18 -198 18 -284 -1z"/>
<path d="M7820 9215 c-244 -49 -412 -211 -476 -459 -58 -225 43 -484 239 -610
146 -94 170 -101 337 -101 142 1 147 1 213 33 126 58 227 144 301 256 66 99
102 253 86 366 -24 171 -99 302 -226 398 -163 122 -291 154 -474 117z m305
-64 c174 -79 280 -198 340 -379 13 -41 16 -77 13 -150 -3 -84 -9 -108 -39
-177 -64 -147 -167 -253 -308 -318 -59 -27 -79 -31 -181 -35 -70 -3 -136 0
-170 8 -56 13 -152 56 -158 71 -2 5 -9 9 -16 9 -17 0 -132 117 -153 155 -62
116 -83 188 -83 285 1 140 57 278 161 393 143 158 412 220 594 138z"/>
<path d="M7880 9123 c-57 -8 -148 -37 -195 -61 -109 -55 -205 -187 -234 -321
-26 -122 -4 -286 49 -366 44 -66 136 -147 207 -182 65 -32 84 -37 171 -41 55
-2 121 1 153 7 124 26 242 106 310 212 92 145 95 370 5 523 -90 154 -297 256
-466 229z m195 -147 c94 -5 112 -11 121 -38 4 -15 -4 -30 -32 -59 -21 -21 -46
-39 -55 -39 -9 0 -33 23 -53 50 -20 28 -48 55 -62 60 -37 14 -90 12 -103 -4
-8 -9 -11 -70 -9 -197 l3 -184 45 49 c25 26 57 54 71 61 53 28 145 -14 246
-111 l45 -43 -4 -60 c-4 -51 -10 -66 -42 -106 -68 -82 -59 -80 -336 -81 -135
-1 -251 1 -257 3 -7 3 -13 14 -13 25 0 11 6 29 13 41 9 16 12 100 12 322 l0
300 114 7 c62 4 119 9 125 11 6 2 29 2 51 1 22 -2 76 -5 120 -8z"/>
<path d="M8005 8582 c-14 -10 -100 -123 -114 -150 -7 -13 -11 -35 -9 -50 l3
-27 120 -3 c135 -4 178 9 190 56 5 20 -1 33 -32 65 -33 33 -136 117 -145 117
-2 0 -7 -4 -13 -8z"/>
<path d="M8798 9062 c-197 -1 -358 -6 -358 -11 0 -4 9 -20 21 -35 l21 -26 526
2 527 3 3 33 c3 25 -1 32 -15 34 -28 3 -336 3 -725 0z"/>
<path d="M7309 9046 c-2 -2 -220 -7 -484 -10 l-480 -6 3 -22 c6 -53 -3 -51
220 -44 114 4 345 7 514 8 298 2 308 2 326 22 11 12 22 29 25 39 6 15 -1 17
-57 17 -34 0 -65 -2 -67 -4z"/>
<path d="M8973 8933 c-255 -2 -463 -5 -463 -7 0 -2 6 -19 14 -37 8 -19 19 -63
25 -99 22 -124 -2 -110 189 -110 92 0 292 3 445 7 l277 6 0 124 c0 93 -3 122
-12 121 -7 -2 -221 -4 -475 -5z"/>
<path d="M6779 8913 l-397 -3 2 -123 2 -122 175 -2 c96 -2 295 1 443 5 l270 7
17 70 c9 39 26 91 37 117 11 25 18 49 15 52 -4 3 -43 5 -87 4 -45 -2 -259 -4
-477 -5z"/>
<path d="M8750 8620 l-185 -5 -7 -55 c-31 -223 -159 -396 -376 -505 -28 -14
-53 -29 -56 -33 -4 -7 231 -6 889 6 l380 7 6 285 c3 157 3 291 1 298 -4 13
-256 14 -652 2z"/>
<path d="M6454 8595 c-3 -6 -3 -141 -2 -300 l3 -290 130 0 c993 4 1147 7 1129
19 -11 7 -56 32 -101 56 -105 55 -170 112 -228 200 -53 80 -81 155 -97 259
l-11 73 -410 -3 c-264 -3 -411 -8 -413 -14z"/>
<path d="M8150 7970 c-289 -4 -773 -11 -1076 -15 l-552 -8 -6 -46 c-7 -53 -9
-1691 -3 -1698 3 -2 198 -1 433 4 l429 8 5 625 c5 605 6 627 26 680 37 97 63
138 131 210 169 180 426 221 644 103 115 -62 201 -164 252 -301 22 -56 22 -65
22 -685 l0 -628 421 1 c231 1 427 6 435 10 12 8 14 136 14 877 l0 868 -325 1
c-179 0 -561 -3 -850 -6z m1074 -56 c12 -5 16 -21 16 -66 0 -101 28 -93 -347
-93 l-328 0 0 75 0 75 310 5 c171 3 315 6 322 8 6 1 18 -1 27 -4z m-1964 -33
c5 -11 10 -42 10 -70 0 -83 6 -82 -361 -79 l-314 3 -3 69 c-2 38 -1 75 2 83 4
10 67 13 330 13 311 0 326 -1 336 -19z m1868 -868 l2 -671 -102 -7 c-57 -3
-159 -5 -228 -3 l-125 3 -2 660 c-1 363 0 668 3 678 5 16 22 17 227 15 l222
-3 3 -672z m-1984 495 c10 -198 2 -1136 -10 -1147 -5 -6 -101 -13 -212 -17
-170 -6 -205 -5 -213 7 -10 16 -12 924 -2 1136 6 134 7 142 27 145 12 2 107 5
212 6 l192 3 6 -133z"/>
<path d="M8663 7862 c-38 -3 -43 -6 -43 -27 0 -18 7 -26 24 -31 13 -3 133 -4
266 -2 226 3 243 4 256 23 8 10 13 24 11 30 -3 9 -403 15 -514 7z"/>
<path d="M6836 7850 c-144 -4 -191 -8 -190 -17 1 -7 2 -22 3 -34 1 -20 5 -20
249 -18 136 1 258 5 272 9 17 4 26 14 28 32 4 32 -22 40 -112 36 -32 -2 -145
-5 -250 -8z"/>
<path d="M8747 7593 c-4 -3 -7 -269 -7 -590 l0 -584 156 3 156 3 5 588 6 587
-155 0 c-85 0 -158 -3 -161 -7z"/>
<path d="M6778 7543 c-2 -5 -3 -255 -3 -558 l0 -550 145 0 145 0 8 543 c5 299
6 550 3 558 -4 11 -35 14 -150 14 -80 0 -146 -3 -148 -7z"/>
<path d="M8737 6163 c-315 -3 -338 -4 -335 -21 3 -16 33 -17 468 -14 256 2
477 5 493 8 15 3 27 12 27 20 0 12 -27 14 -157 12 -87 -2 -310 -4 -496 -5z"/>
<path d="M6433 6134 c-3 -8 -2 -19 3 -24 5 -5 219 -6 489 -2 417 6 480 9 480
22 0 13 -61 15 -483 18 -432 2 -483 1 -489 -14z"/>
<path d="M8815 6070 l-470 -5 -6 -70 c-4 -38 -4 -74 -1 -79 6 -11 1047 2 1089
13 25 7 28 12 31 56 2 27 1 59 -3 72 -5 22 -9 23 -88 21 -45 -2 -293 -5 -552
-8z"/>
<path d="M7448 6055 c-2 -2 -244 -6 -538 -9 -606 -6 -548 4 -549 -94 -1 -38 3
-54 14 -58 8 -3 259 -2 557 3 l543 8 3 71 c2 55 0 73 -12 77 -8 3 -16 4 -18 2z"/>
<path d="M4276 4374 c-253 -46 -479 -298 -615 -687 -101 -290 -107 -495 -16
-596 52 -58 93 -66 225 -45 96 16 121 16 201 5 55 -8 95 -9 100 -4 11 11 -15
89 -38 115 -27 30 -112 74 -198 103 -110 37 -122 46 -130 97 -11 76 12 265 45
368 40 122 73 182 136 246 55 57 94 74 120 53 62 -51 88 -174 104 -489 16
-307 30 -403 68 -465 l19 -30 191 0 c106 0 192 3 192 6 0 7 -26 46 -83 125
-66 92 -75 123 -138 524 -36 223 -42 282 -46 473 l-5 217 -27 -1 c-14 0 -61
-7 -105 -15z"/>
<path d="M1328 4358 c-37 -13 -36 -41 2 -85 l30 -34 0 -512 c0 -294 -4 -526
-10 -545 -5 -19 -25 -51 -45 -73 -38 -42 -46 -79 -17 -79 9 0 76 5 149 11 93
8 154 9 205 1 77 -10 148 -6 148 9 0 5 -24 33 -54 62 -30 28 -61 69 -70 91
-29 69 -38 283 -27 610 9 258 13 303 29 334 63 123 202 100 273 -44 43 -87 49
-195 20 -389 -51 -351 -70 -630 -43 -657 9 -9 43 -12 119 -10 59 2 135 -2 170
-9 82 -16 143 -1 143 36 0 18 -8 26 -35 35 -103 34 -149 189 -127 433 12 133
29 278 57 486 17 127 13 156 -35 251 -41 81 -45 83 -144 75 -50 -4 -126 -2
-188 5 -87 10 -116 10 -191 -4 -79 -14 -97 -14 -165 -1 -87 17 -154 18 -194 3z"/>
<path d="M2718 4357 c-12 -4 -56 -43 -99 -86 -59 -60 -87 -98 -118 -162 -65
-134 -76 -190 -76 -374 0 -137 3 -171 23 -239 38 -133 78 -201 172 -297 72
-73 100 -93 181 -133 52 -25 107 -46 122 -46 14 0 52 10 84 22 171 64 308 190
397 368 71 141 81 189 81 385 0 158 -2 175 -27 246 -32 92 -74 166 -135 237
-74 87 -73 86 -346 87 -131 0 -248 -4 -259 -8z m235 -153 c95 -48 179 -139
240 -259 84 -168 107 -438 47 -556 -29 -56 -92 -99 -146 -99 -235 0 -446 323
-431 660 3 68 10 120 22 148 19 45 92 118 128 126 36 7 105 -2 140 -20z"/>
<path d="M4740 4363 c-8 -3 -18 -11 -22 -17 -12 -18 -9 -100 6 -168 8 -35 20
-96 26 -137 13 -78 40 -121 78 -121 38 0 53 24 67 109 25 138 64 202 116 186
11 -4 27 -18 37 -33 15 -24 17 -63 16 -422 -1 -518 -3 -534 -108 -692 -17 -26
-17 -28 -2 -34 10 -4 54 -3 99 1 112 10 207 10 303 1 59 -7 83 -6 88 3 5 7
-10 41 -33 79 -66 111 -74 178 -75 617 -1 392 5 454 46 476 27 15 70 -9 91
-52 9 -20 21 -70 27 -113 5 -42 14 -85 20 -96 22 -41 81 -37 104 8 21 42 68
260 70 325 1 78 -15 91 -99 82 -33 -4 -103 -5 -155 -3 -133 4 -358 3 -470 -2
-52 -3 -122 -1 -155 2 -33 4 -67 5 -75 1z"/>
<path d="M5831 4361 c-12 -7 -9 -21 14 -77 35 -87 34 -123 -4 -345 -27 -162
-37 -263 -60 -645 -8 -133 -10 -145 -40 -198 -40 -69 -35 -73 87 -60 48 5 153
8 234 6 178 -4 218 5 248 53 12 20 24 54 28 77 l5 41 -64 -6 c-87 -9 -128 4
-168 53 -44 54 -87 151 -102 231 -19 96 -16 320 5 399 37 140 123 271 210 318
48 26 176 23 213 -4 52 -39 66 -77 70 -188 4 -83 1 -107 -14 -136 -22 -42 -65
-68 -126 -76 -69 -10 -110 2 -160 46 -50 44 -66 48 -90 22 -19 -21 -47 -96
-47 -126 0 -48 21 -92 53 -114 l33 -22 75 20 c156 43 166 44 209 31 60 -18 64
-32 57 -211 -8 -198 -32 -284 -102 -368 -14 -16 -25 -32 -25 -35 0 -3 113 -6
250 -6 285 0 269 -6 225 87 -29 63 -37 108 -71 392 -60 517 -62 562 -27 753 8
48 13 90 9 94 -3 3 -51 0 -107 -7 -83 -11 -119 -11 -211 0 -91 11 -130 11
-225 0 -90 -11 -133 -11 -202 -2 -105 14 -161 15 -180 3z"/>
<path d="M6955 4341 c4 -14 21 -43 38 -65 l32 -40 -1 -461 c-1 -552 -7 -608
-69 -694 -14 -19 -21 -37 -16 -40 5 -4 47 -3 93 1 124 10 384 9 551 -2 168
-12 252 -3 326 34 122 63 168 191 119 332 -35 100 -84 168 -209 293 -60 60
-109 114 -109 120 0 6 35 45 79 87 97 92 145 174 145 250 1 46 -5 60 -48 123
-26 39 -51 72 -55 72 -11 3 -360 9 -624 12 l-258 2 6 -24z m563 -117 c82 -34
141 -120 142 -206 0 -59 -10 -86 -52 -133 -71 -81 -215 -112 -289 -62 -28 19
-36 32 -47 82 -26 120 1 273 56 315 31 25 135 27 190 4z m2 -570 c100 -54 200
-190 216 -295 14 -88 -29 -163 -111 -194 -64 -25 -223 -18 -262 11 -64 47 -93
146 -94 317 0 104 14 153 52 181 36 26 132 16 199 -20z"/>
<path d="M8195 4356 c-18 -13 -17 -15 8 -80 33 -82 33 -105 2 -286 -33 -183
-52 -373 -64 -615 -9 -189 -20 -247 -56 -298 -33 -47 -25 -51 103 -42 64 5
178 8 252 6 84 -2 146 2 165 9 37 14 71 52 85 96 20 59 12 64 -86 61 l-86 -2
-40 45 c-84 94 -117 194 -125 375 -9 210 31 372 120 485 98 125 259 156 346
66 27 -28 34 -44 41 -100 8 -63 0 -171 -15 -208 -11 -27 -103 -68 -153 -68
-51 0 -93 18 -141 60 -18 17 -40 30 -47 30 -35 0 -74 -75 -77 -150 -2 -60 23
-99 76 -117 32 -11 46 -9 114 14 103 34 184 37 215 5 21 -21 23 -29 21 -155
-2 -142 -21 -273 -47 -329 -10 -20 -30 -48 -46 -63 -56 -54 -53 -55 215 -55
201 0 247 3 251 14 3 8 -6 37 -21 65 -33 66 -36 84 -81 456 -41 344 -47 506
-25 678 8 59 12 110 9 113 -3 3 -51 0 -105 -7 -79 -10 -124 -10 -212 0 -88 9
-140 9 -236 0 -95 -9 -143 -9 -207 -1 -107 15 -130 15 -153 -2z"/>
<path d="M10244 4361 c-11 -5 -34 -25 -51 -44 -38 -43 -40 -61 -48 -357 -17
-641 -30 -815 -65 -850 -29 -29 -43 -61 -32 -72 6 -6 47 -5 113 3 75 9 174 10
359 4 407 -14 465 -7 551 65 59 48 83 110 83 210 0 77 -3 92 -35 155 -90 184
-289 301 -539 320 -131 9 -164 19 -180 52 -21 45 -26 230 -7 276 28 66 60 66
217 2 145 -59 183 -68 275 -69 79 -1 94 2 122 22 47 33 56 77 38 186 -8 49
-18 93 -24 99 -7 7 -29 0 -66 -18 -68 -35 -118 -35 -315 -5 -154 23 -365 35
-396 21z m377 -704 c121 -59 211 -192 217 -322 3 -60 0 -75 -20 -105 -39 -58
-96 -80 -209 -80 -83 0 -101 3 -130 23 -45 29 -76 95 -88 190 -22 160 -10 259
36 304 22 22 31 25 82 21 35 -2 79 -15 112 -31z"/>
<path d="M11331 4360 c-26 -12 -24 -34 10 -106 25 -53 24 -74 -10 -282 -39
-232 -49 -330 -56 -547 -7 -208 -17 -274 -51 -332 -38 -66 -37 -67 79 -58 56
5 168 8 249 6 166 -3 204 5 243 50 19 23 25 42 25 76 l0 46 -61 -6 c-98 -9
-143 13 -195 96 -64 99 -89 227 -81 411 9 206 55 336 153 433 61 59 105 77
189 77 120 1 168 -61 168 -217 0 -149 -32 -191 -156 -204 -62 -6 -107 10 -160
57 -20 17 -44 30 -54 28 -43 -8 -83 -144 -59 -201 30 -72 70 -83 179 -51 108
31 211 33 227 4 15 -28 14 -255 0 -349 -13 -83 -36 -142 -71 -186 -56 -69 -77
-63 201 -63 143 0 253 4 256 9 3 5 -8 39 -25 75 -28 60 -34 91 -66 367 -20
166 -40 329 -45 362 -15 91 -12 247 7 382 9 68 14 125 11 129 -4 3 -50 0 -104
-7 -78 -9 -123 -9 -225 1 -105 11 -141 11 -204 0 -71 -12 -119 -11 -295 5 -30
3 -66 0 -79 -5z"/>
<path d="M12420 4362 c-20 -7 -9 -38 35 -102 44 -64 45 -67 57 -185 15 -159
-3 -795 -25 -867 -8 -26 -33 -71 -56 -99 -23 -29 -40 -57 -38 -63 4 -12 43
-13 222 -5 61 2 147 0 193 -5 97 -10 100 -6 47 69 -59 83 -70 134 -70 342 0
136 3 185 13 195 20 20 286 18 307 -3 12 -12 15 -44 16 -175 0 -215 -18 -291
-90 -373 -12 -13 -21 -33 -21 -44 0 -19 5 -19 70 -13 39 3 102 9 141 13 41 3
112 1 170 -7 136 -18 147 -2 63 92 -57 64 -59 79 -59 563 0 481 1 487 59 572
40 59 53 93 34 93 -368 4 -452 2 -456 -9 -2 -7 12 -38 31 -69 21 -34 40 -81
46 -116 12 -63 15 -276 5 -314 -9 -31 -39 -37 -176 -37 -158 0 -152 -8 -156
188 l-4 153 45 85 c70 133 88 121 -170 123 -123 0 -227 0 -233 -2z"/>
<path d="M14204 4358 c-9 -13 9 -36 66 -87 46 -39 60 -59 60 -79 0 -106 -256
-422 -341 -422 -11 0 -28 9 -38 19 -18 18 -20 34 -18 218 l2 199 -30 59 c-26
51 -36 62 -69 73 -51 17 -238 12 -244 -5 -2 -7 15 -31 37 -53 42 -42 46 -54
55 -170 7 -97 -12 -595 -29 -753 -17 -164 -28 -207 -59 -244 -35 -42 -48 -71
-36 -78 6 -4 75 -1 153 5 105 9 175 10 267 2 69 -6 129 -7 134 -2 4 4 -14 37
-42 73 -55 72 -90 163 -118 308 -15 80 -15 88 1 122 32 68 54 61 128 -42 68
-94 126 -207 143 -280 12 -49 11 -60 -7 -110 -11 -31 -21 -60 -22 -66 -1 -6
21 -9 53 -9 30 1 137 2 238 3 l183 2 -18 28 c-55 85 -175 266 -299 454 -77
116 -144 218 -148 225 -5 9 50 71 181 200 217 215 264 277 271 358 2 30 1 54
-4 55 -66 4 -447 2 -450 -3z"/>
<path d="M9423 3641 c-22 -16 -50 -43 -62 -59 -29 -41 -71 -133 -71 -156 0
-21 -11 -21 205 3 66 7 120 7 200 -3 66 -7 120 -9 136 -4 59 20 149 149 149
214 0 33 -2 34 -38 34 -21 0 -49 -8 -62 -17 -35 -25 -261 -25 -339 0 -71 22
-71 22 -118 -12z"/>
<path d="M7934 2883 l-6682 -3 -6 -25 c-4 -14 -4 -30 -1 -35 4 -6 2471 -10
6720 -10 6662 0 6714 0 6720 20 10 31 -12 60 -43 58 -15 -2 -3034 -4 -6708 -5z"/>
<path d="M3982 2571 c-23 -4 -49 -16 -57 -27 -39 -49 -75 -104 -75 -113 0 -6
-10 -16 -22 -22 -34 -18 -46 8 -40 91 l5 70 -52 0 -51 0 0 -201 0 -200 48 3
47 3 3 88 c1 48 6 87 10 87 20 0 54 -36 97 -105 l48 -75 48 0 c33 0 49 4 49
13 0 17 -65 115 -101 152 -16 17 -29 39 -29 48 0 28 62 104 97 122 40 19 61
54 42 66 -8 5 -16 8 -19 8 -3 -1 -24 -5 -48 -8z"/>
<path d="M4127 2574 c-4 -4 -7 -97 -7 -206 l0 -198 175 0 c133 0 175 -3 176
-12 0 -7 2 -26 2 -43 2 -28 5 -30 42 -30 l40 0 3 48 c2 35 -2 57 -17 81 -19
30 -21 49 -21 195 l0 162 -51 -3 -51 -3 -2 -165 -1 -165 -95 3 c-52 2 -97 6
-100 9 -3 2 -3 76 -2 164 l4 159 -24 0 c-12 0 -32 3 -43 6 -11 3 -24 2 -28 -2z"/>
<path d="M4966 2573 c-35 -9 -94 -51 -122 -88 -49 -65 -46 -180 8 -241 62 -71
171 -100 279 -74 98 24 170 127 155 223 -13 79 -50 125 -131 163 -48 23 -135
31 -189 17z m161 -84 c44 -27 67 -72 60 -119 -7 -55 -28 -91 -66 -117 -64 -43
-162 -20 -196 47 -20 39 -19 120 1 149 43 61 137 79 201 40z"/>
<path d="M5973 2573 l-93 -4 -2 -122 c-1 -67 -3 -151 -4 -187 0 -36 1 -71 4
-77 3 -10 51 -13 194 -13 l189 0 -3 33 -3 32 -140 5 -140 5 0 50 0 50 125 0
125 0 3 32 c3 28 0 32 -29 38 -17 4 -72 6 -122 4 l-90 -4 -10 28 c-18 54 -10
57 132 57 121 0 130 1 136 20 3 11 3 29 0 40 -7 22 -13 22 -272 13z"/>
<path d="M6350 2376 l0 -207 48 3 47 3 2 69 c1 37 4 70 7 73 3 3 46 7 95 9
113 3 125 7 152 50 42 69 21 140 -53 177 -26 13 -71 19 -167 24 l-131 6 0
-207z m247 118 c27 -5 39 -43 24 -73 -12 -21 -41 -29 -126 -33 l-50 -3 -3 48
c-4 67 7 77 76 71 31 -3 67 -7 79 -10z"/>
<path d="M7409 2573 l-77 -4 -4 -34 c-2 -18 -5 -108 -7 -199 l-2 -166 190 0
c104 0 192 4 195 9 4 5 2 21 -4 36 -9 23 -14 26 -41 20 -16 -4 -77 -4 -134 0
l-103 7 -4 42 c-7 67 -9 66 133 66 l129 0 0 29 c0 38 -16 43 -138 41 -53 -1
-103 -1 -109 -1 -8 1 -13 16 -13 41 l0 40 135 0 135 0 0 40 0 40 -102 -2 c-57
-1 -137 -4 -179 -5z"/>
<path d="M8514 2561 c-60 -27 -112 -77 -124 -119 -27 -98 3 -185 83 -239 59
-39 131 -50 221 -33 105 20 166 93 166 200 0 123 -99 210 -240 210 -42 0 -79
-7 -106 -19z m171 -65 c74 -31 101 -144 49 -206 -94 -111 -254 -57 -254 85 0
103 102 164 205 121z"/>
<path d="M8955 2570 c-6 -10 -10 -389 -4 -395 4 -3 75 -6 158 -6 167 1 193 8
230 60 32 45 27 78 -16 116 l-37 32 19 28 c11 15 25 34 30 42 17 22 -24 85
-70 108 -34 16 -62 19 -173 20 -74 0 -135 -2 -137 -5z m259 -69 c20 -8 26 -17
26 -40 0 -16 -5 -33 -11 -36 -13 -9 -148 -15 -171 -9 -24 7 -25 69 -2 82 23
13 126 14 158 3z m34 -166 c7 -3 12 -21 12 -44 0 -38 -2 -41 -40 -51 -22 -6
-71 -10 -108 -8 l-67 3 -3 44 c-5 72 -4 73 100 66 51 -4 99 -8 106 -10z"/>
<path d="M9580 2567 c-15 -7 -39 -42 -62 -87 -67 -134 -138 -287 -138 -298 0
-16 31 -23 65 -14 21 6 35 19 48 45 19 40 44 55 92 52 17 -1 54 -3 83 -3 52
-2 53 -2 72 -46 14 -35 25 -46 49 -51 17 -3 39 -4 50 0 27 8 18 35 -79 223
-99 193 -117 211 -180 179z m75 -163 c34 -78 33 -84 -17 -84 -67 0 -90 9 -82
32 17 55 47 108 60 108 8 0 25 -25 39 -56z"/>
<path d="M11022 2565 c-105 -46 -154 -137 -131 -243 12 -57 33 -85 94 -124 45
-30 56 -33 126 -32 64 0 84 5 121 27 55 32 82 70 74 103 -9 35 -48 31 -93 -10
-49 -43 -75 -56 -113 -56 -69 0 -110 58 -110 155 0 49 4 60 29 85 52 52 121
52 187 -1 42 -33 86 -36 92 -7 5 26 -48 86 -91 103 -47 19 -141 19 -185 0z"/>
<path d="M11830 2561 c-6 -12 -10 -96 -10 -205 l0 -186 155 0 c171 0 192 5
239 60 35 42 33 59 -13 111 l-39 45 24 27 c44 51 23 112 -50 142 -22 9 -84 17
-165 20 -121 5 -131 4 -141 -14z m276 -73 c10 -10 13 -24 9 -41 -8 -31 -39
-40 -130 -35 l-60 3 -3 39 c-2 24 2 42 10 48 21 14 157 3 174 -14z m17 -155
c4 -2 7 -21 7 -43 0 -34 -4 -39 -31 -49 -49 -17 -155 -14 -173 5 -16 16 -21
59 -10 89 6 15 18 16 103 10 53 -4 99 -9 104 -12z"/>
<path d="M12415 2559 c-81 -43 -124 -107 -125 -185 -1 -147 141 -240 311 -205
165 34 227 236 107 348 -68 63 -213 84 -293 42z m178 -63 c50 -21 70 -50 75
-110 3 -43 0 -59 -19 -89 -79 -121 -259 -68 -259 77 0 100 106 163 203 122z"/>
<path d="M3317 2552 c-10 -10 -17 -22 -17 -25 0 -4 -38 -84 -85 -178 -47 -94
-85 -172 -85 -175 0 -2 24 -4 53 -4 52 0 53 0 72 43 l20 42 85 3 c113 4 124 0
143 -48 15 -39 16 -40 67 -40 49 0 51 1 44 23 -12 39 -176 362 -188 369 -23
15 -92 8 -109 -10z m103 -154 c12 -33 18 -64 13 -68 -4 -4 -32 -6 -60 -3 -63
7 -66 18 -28 93 31 62 46 58 75 -22z"/>
<path d="M4625 2373 l1 -198 47 -3 c59 -4 59 -7 55 218 l-3 175 -50 3 -50 3 0
-198z"/>
<path d="M5380 2567 c0 -3 -2 -93 -5 -201 l-6 -196 51 0 50 0 0 84 0 84 68 4
c37 2 82 2 100 0 l32 -3 0 -85 0 -84 50 0 50 0 0 200 0 200 -50 0 -50 0 0 -74
0 -75 -52 -6 c-29 -4 -73 -5 -98 -3 l-45 3 -1 75 -1 75 -47 3 c-25 2 -46 1
-46 -1z"/>
<path d="M6820 2453 c0 -65 -3 -155 -7 -200 l-6 -83 58 0 57 0 -3 83 -4 82
103 3 103 3 -3 -83 -3 -83 50 0 50 0 3 198 2 197 -50 0 -50 0 0 -75 0 -75
-100 0 -100 0 0 75 0 75 -50 0 -50 0 0 -117z"/>
<path d="M7952 2538 l3 -33 74 -5 74 -5 -2 -140 c-1 -77 -3 -149 -4 -160 -2
-17 5 -20 51 -23 l52 -3 0 165 0 165 73 3 72 3 3 33 3 32 -201 0 -201 0 3 -32z"/>
<path d="M9927 2562 c-3 -4 -4 -61 -2 -127 1 -66 3 -153 4 -192 l1 -73 50 0
50 0 0 73 0 74 101 7 c55 3 109 11 119 16 24 13 50 71 50 113 0 42 -31 84 -76
103 -36 15 -289 20 -297 6z m267 -78 c23 -23 20 -61 -6 -78 -13 -8 -52 -16
-88 -18 l-64 -3 -9 43 c-13 67 -8 72 77 72 54 0 79 -4 90 -16z"/>
<path d="M10399 2413 c0 -87 -2 -177 -5 -200 l-6 -43 52 0 c59 0 69 8 157 133
60 84 98 129 104 123 2 -2 2 -58 -1 -123 -3 -65 -4 -121 -2 -125 2 -5 23 -8
47 -8 33 0 45 4 49 18 4 14 3 110 -3 345 l-1 37 -49 0 c-56 0 -61 -4 -162
-155 -52 -78 -66 -95 -81 -95 -4 0 -9 55 -10 123 l-3 122 -42 3 -43 3 -1 -158z"/>
<path d="M11350 2552 c0 -38 22 -51 89 -54 l64 -3 -2 -162 -2 -163 50 0 51 0
2 163 3 162 73 3 72 3 0 34 0 35 -200 0 c-186 0 -200 -1 -200 -18z"/>
</g>
</svg>
